<svg width="186" height="186" viewBox="0 0 186 186" fill="none" xmlns="http://www.w3.org/2000/svg">
<path fill-rule="evenodd" clip-rule="evenodd" d="M88.8201 0.0809997C68.005 0.96705 47.9913 8.94788 32.0813 22.7063C29.7981 24.6807 24.6719 29.8244 22.6894 32.13C13.8602 42.3985 7.46687 54.0926 3.77002 66.7355C-0.107343 79.9953 -0.999863 93.6994 1.12014 107.427C4.52848 129.496 16.1134 149.951 33.3603 164.351C56.2391 183.453 86.5489 190.415 115.55 183.229C143.548 176.291 166.886 156.468 178.417 129.831C185.505 113.457 187.681 95.3447 184.705 77.4891C181.881 60.5448 174.384 44.7952 162.852 31.5835C161.225 29.7196 156.321 24.8059 154.393 23.1085C139.304 9.82355 119.826 1.64234 100.022 0.271544C95.9535 -0.0100828 92.3848 -0.0709259 88.8201 0.0809997ZM88.0004 49.4399C113.716 50.6198 137.057 56.4827 154.393 66.1169C157.559 67.8764 158.411 68.5115 159.391 69.8424C160.753 71.6926 161.342 74.1316 160.959 76.3351C159.96 82.0826 153.918 85.2091 148.686 82.6861C147.968 82.3398 146.561 81.5918 145.559 81.024C141.525 78.738 135.311 76.0608 129.621 74.1569C118.438 70.4158 106.915 68.1969 92.3719 66.9842C87.613 66.5874 72.329 66.5262 67.8732 66.8862C57.6349 67.7132 49.3434 69.0485 42.1904 71.0219C38.4695 72.0484 37.3972 72.1695 35.5902 71.7675C31.5913 70.8778 28.9076 67.5356 28.8975 63.4331C28.8912 60.7935 29.748 58.77 31.6092 57.0289C33.0184 55.7106 34.074 55.2613 38.5475 54.0764C48.4366 51.4566 59.3019 49.9326 72.0625 49.3754C75.2006 49.2384 84.423 49.2756 88.0004 49.4399ZM89.6397 81.7561C107.898 83.5244 123.387 87.7669 137.271 94.8033C140.848 96.6159 144.423 98.6645 145.421 99.4739C148.954 102.336 148.82 107.959 145.153 110.756C143.932 111.688 142.512 112.143 140.823 112.144C139.049 112.145 138.258 111.864 135.632 110.299C133.127 108.806 126.692 105.648 123.701 104.443C108.787 98.4383 91.5548 95.3874 74.7037 95.7688C64.9697 95.9892 57.215 96.9968 48.9299 99.1181C42.7467 100.701 42.572 100.732 41.197 100.497C35.5135 99.5231 33.1372 92.8046 37.0002 88.6318C38.2881 87.2406 39.2204 86.7673 42.3726 85.9048C50.4025 83.7075 58.9248 82.2236 66.5981 81.6867C68.1509 81.5782 69.7493 81.459 70.15 81.4222C72.254 81.2282 86.754 81.4767 89.6397 81.7561ZM84.995 111.743C102.782 112.672 118.731 117.278 132.469 125.455C134.648 126.752 135.266 127.343 135.931 128.769C136.45 129.878 136.51 131.815 136.068 133.114C135.437 134.965 133.358 136.569 131.269 136.817C129.887 136.98 128.821 136.61 125.887 134.948C111.655 126.886 96.8276 123.174 78.802 123.159C68.8384 123.151 61.1743 123.967 49.8406 126.241C44.3835 127.336 43.9551 127.356 42.2659 126.593C40.2325 125.675 39.014 123.723 39.0184 121.391C39.0213 119.782 39.4173 118.744 40.4735 117.575C41.6252 116.3 42.53 115.97 47.8171 114.901C56.8833 113.068 64.4781 112.112 73.4286 111.676C76.1845 111.542 81.7615 111.574 84.995 111.743Z" fill="#1ED760"/>
</svg>
